<?xml version="1.0" standalone="no"?>
<!DOCTYPE svg PUBLIC "-//W3C//DTD SVG 20010904//EN"
 "http://www.w3.org/TR/2001/REC-SVG-20010904/DTD/svg10.dtd">
<svg version="1.0" xmlns="http://www.w3.org/2000/svg"
 width="726.000000pt" height="589.000000pt" viewBox="0 0 726.000000 589.000000"
 preserveAspectRatio="xMidYMid meet">
<metadata>
Created by potrace 1.15, written by Peter Selinger 2001-2017
</metadata>
<g transform="translate(0.000000,589.000000) scale(0.100000,-0.100000)"
fill="#000000" stroke="none">
<path d="M5140 5805 c-8 -8 -136 -62 -285 -120 -148 -58 -334 -137 -412 -174
l-141 -69 -69 33 c-355 169 -864 187 -1308 44 l-95 -30 -112 45 c-110 44 -482
163 -643 206 -44 12 -90 28 -102 36 -12 8 -25 14 -27 14 -3 0 -8 -22 -12 -50
-4 -32 -11 -50 -20 -50 -17 0 -17 1 0 -46 7 -22 21 -86 31 -144 20 -122 45
-236 121 -555 53 -223 54 -232 39 -268 -10 -25 -26 -41 -48 -51 -40 -16 -78
-62 -176 -208 -158 -238 -267 -437 -402 -733 -217 -478 -343 -846 -473 -1385
-145 -598 -184 -967 -173 -1635 5 -308 13 -421 42 -617 l7 -48 230 0 231 0 -6
38 c-3 20 -11 166 -18 323 -20 493 14 994 111 1596 90 559 213 1039 408 1593
49 140 99 287 110 325 l20 70 1 -136 c1 -133 29 -389 51 -459 21 -67 48 -216
56 -300 9 -101 12 -93 44 115 20 125 25 144 32 115 12 -60 11 -783 -3 -970
l-12 -176 -99 -69 c-55 -37 -126 -94 -159 -124 -50 -47 -62 -65 -74 -111 -8
-30 -15 -91 -15 -136 0 -86 41 -393 65 -484 35 -131 117 -491 155 -678 23
-112 48 -227 56 -255 8 -29 26 -103 42 -164 l27 -113 1392 0 1392 0 21 58 c49
131 106 312 225 724 44 152 166 776 180 923 7 70 7 70 -35 135 -49 75 -79 103
-241 231 -94 74 -118 98 -115 114 3 11 11 45 19 76 10 37 17 144 21 320 4 145
11 318 17 383 10 110 63 443 72 453 2 2 7 -29 11 -69 8 -88 17 -140 22 -135 7
7 83 286 104 383 11 50 23 156 26 234 l7 143 63 -189 c34 -104 86 -254 114
-334 231 -650 385 -1384 466 -2220 19 -195 25 -793 11 -1073 l-8 -157 228 2
228 3 17 125 c50 381 45 1034 -12 1485 -64 498 -245 1189 -441 1683 -183 458
-369 825 -573 1127 -92 136 -131 184 -159 194 -27 10 -86 179 -86 246 -1 28
12 133 28 235 16 102 37 259 46 350 9 91 22 189 29 218 13 49 12 52 -5 52 -14
0 -19 7 -19 30 0 17 -5 30 -11 30 -6 0 -9 9 -6 20 6 24 -3 26 -23 5z m-2737
-296 c34 -19 99 -76 119 -107 28 -42 24 -116 -11 -186 -17 -32 -33 -76 -36
-97 -6 -35 -9 -38 -26 -28 -27 14 -33 8 -59 -58 -29 -73 -26 -70 -51 -47 -21
19 -21 18 -49 -13 -31 -35 -40 -33 -40 8 0 53 -7 59 -47 43 -19 -8 -39 -14
-43 -12 -5 2 2 28 15 58 32 72 31 77 -9 94 -18 8 -37 19 -41 26 -4 6 15 46 43
90 28 44 47 82 42 85 -5 3 -22 23 -40 44 l-30 39 57 12 c89 17 87 16 64 49
-12 16 -21 31 -21 34 0 7 139 -22 163 -34z m2472 14 c-17 -41 -12 -47 49 -55
32 -4 61 -10 64 -12 2 -3 -11 -25 -28 -50 -37 -51 -40 -39 37 -132 24 -28 43
-56 43 -62 0 -6 -18 -22 -40 -34 -22 -13 -40 -27 -40 -31 0 -4 14 -35 31 -68
l30 -61 -33 8 c-61 13 -63 12 -66 -34 l-3 -42 -33 25 -33 25 -18 -20 c-18 -20
-19 -20 -53 45 -33 61 -53 78 -67 55 -10 -16 -22 -3 -29 32 -3 18 -20 52 -36
75 -32 44 -53 124 -43 164 23 88 153 186 252 188 18 1 22 -3 16 -16z m-1836
-889 c-11 -129 -7 -281 12 -443 5 -46 8 -86 5 -88 -3 -3 -26 2 -52 11 -26 9
-49 14 -51 12 -2 -2 22 -13 53 -23 l58 -19 18 -74 c14 -58 15 -75 6 -82 -9 -5
-8 -8 4 -8 10 0 20 -11 24 -25 6 -24 7 -24 19 -8 10 13 10 20 2 25 -7 4 -13
41 -15 85 -2 43 -2 75 2 72 3 -3 29 -73 56 -155 28 -82 55 -153 60 -157 4 -5
6 49 4 120 l-5 128 34 -100 c42 -124 202 -464 213 -453 2 3 -3 39 -11 82 -23
119 -17 129 19 36 46 -122 55 -136 72 -119 34 35 155 371 199 554 l21 90 8
-135 c6 -121 -2 -275 -20 -358 l-5 -27 15 25 c9 14 34 72 57 130 22 58 52 117
65 131 13 14 21 28 17 32 -3 4 -2 7 3 7 6 0 19 7 30 15 17 14 15 14 -13 0 -38
-18 -38 -18 -15 60 14 47 23 61 42 66 l25 7 -24 1 c-20 1 -22 4 -16 29 43 171
71 352 81 531 8 139 8 139 63 1 17 -41 66 -163 110 -270 43 -107 77 -198 75
-201 -2 -4 -55 -22 -119 -40 -63 -18 -113 -35 -110 -37 3 -4 183 46 228 63 11
5 17 2 17 -6 0 -8 28 -71 63 -140 l63 -126 -45 28 c-100 64 -167 70 -298 28
-112 -37 -174 -99 -219 -224 -13 -36 -22 -65 -20 -65 2 0 16 21 31 46 15 25
28 44 30 42 2 -2 0 -37 -6 -77 -20 -165 42 -322 144 -360 66 -25 161 -6 203
40 17 18 17 20 -1 33 -17 12 -17 16 -5 31 8 10 22 14 36 11 19 -5 23 0 33 39
26 102 8 263 -39 356 l-21 40 30 -16 c94 -48 151 -142 158 -258 5 -67 2 -77
-29 -139 -19 -38 -33 -68 -31 -68 4 0 133 137 167 177 l28 33 -17 57 c-9 31
-33 89 -52 127 -48 95 -77 184 -103 313 -21 104 -21 107 -4 121 18 13 18 13
-1 10 -15 -2 -20 5 -27 40 -8 49 -44 338 -52 427 l-6 60 42 -80 c55 -106 144
-304 159 -356 11 -34 10 -42 -2 -51 -11 -8 -11 -9 3 -4 20 6 28 -19 59 -175
45 -233 47 -481 7 -779 -21 -158 -52 -268 -151 -529 -41 -108 -76 -150 -179
-217 -96 -63 -632 -323 -644 -312 -1 2 -8 95 -14 208 -6 113 -13 206 -14 207
-1 2 -16 6 -34 9 -28 6 -30 5 -25 -17 4 -13 8 -18 11 -11 2 6 12 12 23 12 16
0 19 -7 19 -42 0 -24 3 -54 7 -67 6 -22 4 -23 -25 -19 l-32 5 0 -101 c0 -56
-3 -118 -7 -139 -5 -36 -8 -39 -34 -33 -15 3 -125 52 -243 110 -210 102 -277
130 -156 65 57 -30 62 -36 115 -136 79 -147 144 -241 230 -329 74 -76 75 -78
74 -128 0 -28 -4 -60 -8 -71 -7 -17 -11 -15 -35 24 -53 84 -59 136 -11 91 14
-13 25 -21 25 -17 0 15 -46 47 -67 47 -47 0 -90 -57 -143 -189 -34 -85 -66
-145 -102 -192 -28 -38 -55 -69 -59 -69 -15 0 -141 388 -184 565 -52 213 -84
515 -54 515 6 0 39 -16 73 -35 35 -19 67 -35 72 -35 4 0 -34 24 -86 54 -81 46
-96 52 -108 39 -8 -7 -32 -23 -53 -34 -22 -11 -58 -36 -80 -56 -22 -20 -42
-34 -45 -31 -2 3 -3 70 -2 149 l3 143 55 -55 c30 -31 71 -66 90 -78 30 -20 29
-17 -12 20 -25 24 -51 53 -57 65 -21 43 -72 191 -85 246 l-13 57 30 -25 c16
-14 31 -24 32 -22 2 2 -19 77 -47 168 -84 279 -139 599 -137 800 0 84 1 85 14
47 8 -20 31 -69 51 -108 l37 -71 -16 -66 c-9 -37 -19 -90 -22 -117 l-6 -51 86
-89 85 -90 -26 59 c-50 110 -45 200 16 295 34 53 108 121 131 121 4 0 -3 -24
-16 -53 -57 -124 -56 -318 2 -400 42 -60 74 -80 138 -85 67 -5 135 17 165 56
18 22 19 27 5 34 -17 10 -20 34 -5 43 6 4 17 2 25 -5 11 -9 15 -1 24 40 14 63
14 204 1 249 -15 53 -4 49 30 -13 18 -31 33 -56 35 -56 9 0 -21 83 -53 143
-44 86 -92 120 -205 149 -71 18 -90 20 -147 10 -35 -6 -65 -10 -66 -9 -1 1 12
62 29 135 18 79 35 131 41 128 36 -14 47 -15 24 -1 -16 8 -28 21 -28 29 0 31
72 271 114 378 42 109 87 201 94 193 2 -1 -2 -61 -9 -131z m-304 -503 c3 -42
10 -106 16 -143 13 -94 14 -90 -37 -122 -25 -16 -52 -35 -60 -43 -12 -13 -14
-11 -14 13 0 15 8 33 18 40 16 13 16 14 0 8 -15 -5 -18 0 -18 39 0 47 27 272
35 294 3 10 10 10 29 2 22 -10 25 -19 31 -88z m1495 -1741 c0 -158 -63 -525
-121 -707 -32 -98 -105 -282 -119 -296 -15 -16 -85 61 -119 132 -19 39 -36 69
-38 67 -11 -10 70 -147 106 -179 23 -20 41 -40 41 -44 0 -8 -90 -163 -95 -163
-2 0 -11 24 -21 53 -27 82 -109 261 -143 312 -32 48 -37 61 -22 67 5 2 27 20
49 40 l41 37 -14 41 c-16 46 -59 105 -82 114 -9 4 -26 0 -38 -8 -21 -14 -23
-13 -28 5 -4 13 7 34 31 63 106 125 197 254 232 329 l39 84 123 57 c68 31 130
60 138 66 35 21 40 12 40 -70z m-905 -125 c55 -26 118 -53 140 -60 l40 -12 -4
-154 c-2 -85 -5 -156 -8 -159 -10 -10 -137 135 -195 223 -60 93 -118 198 -118
216 0 13 14 7 145 -54z m565 29 c0 -4 -15 -39 -34 -78 -30 -61 -185 -272 -214
-290 -6 -3 -12 25 -16 72 -4 42 -9 100 -12 129 l-6 51 78 37 c44 20 102 47
129 60 51 24 75 30 75 19z m-537 -619 c-36 54 -36 61 -2 20 19 -21 34 -44 34
-49 0 -5 7 -11 15 -13 13 -4 13 -3 0 6 -18 13 -1 14 19 2 11 -7 4 -19 -30 -57
-81 -89 -137 -183 -184 -306 -10 -27 -20 -48 -24 -48 -3 0 -23 39 -43 86 l-37
85 50 62 c53 65 80 114 118 208 l22 57 41 -42 c32 -33 36 -35 21 -11z m336
-254 c56 -132 107 -375 84 -408 -8 -12 -26 -16 -55 -14 -36 2 -61 86 -73 241
-3 41 -9 111 -14 155 -4 44 -6 86 -3 93 7 21 37 -12 61 -67z m-224 -13 c-16
-179 -79 -420 -111 -432 -20 -8 -51 9 -64 34 -13 25 -13 105 1 154 24 88 148
316 171 316 6 0 8 -25 3 -72z"/>
</g>
</svg>
