<?xml version="1.0" encoding="UTF-8"?>
<svg width="40px" height="40px" viewBox="0 0 40 40" xmlns="http://www.w3.org/2000/svg" xmlns:xlink="http://www.w3.org/1999/xlink" version="1.1">
 <!-- Generated by Pixelmator Pro 1.2.1 -->
 <defs>
  <linearGradient id="linear-gradient" gradientUnits="userSpaceOnUse" x1="20" y1="-4" x2="20" y2="44">
   <stop offset="0" stop-color="#bc9cff" stop-opacity="1"/>
   <stop offset="1" stop-color="#8ba4f9" stop-opacity="1"/>
  </linearGradient>
 </defs>
 <path id="path" d="M26.188 29.094 C24.375 30.344 22.313 30.969 20 30.969 17.688 30.969 15.594 30.344 13.719 29.094 11.906 27.781 10.594 26.094 9.781 24.031 L30.219 24.031 C29.406 26.094 28.063 27.781 26.188 29.094 Z M15.031 17.188 C14.469 17.75 13.781 18.031 12.969 18.031 12.156 18.031 11.438 17.75 10.813 17.188 10.25 16.563 9.969 15.844 9.969 15.031 9.969 14.219 10.25 13.531 10.813 12.969 11.438 12.344 12.156 12.031 12.969 12.031 13.781 12.031 14.469 12.344 15.031 12.969 15.656 13.531 15.969 14.219 15.969 15.031 15.969 15.844 15.656 16.563 15.031 17.188 Z M29.094 17.188 C28.531 17.75 27.844 18.031 27.031 18.031 26.219 18.031 25.5 17.75 24.875 17.188 24.313 16.563 24.031 15.844 24.031 15.031 24.031 14.219 24.313 13.531 24.875 12.969 25.5 12.344 26.219 12.031 27.031 12.031 27.844 12.031 28.531 12.344 29.094 12.969 29.719 13.531 30.031 14.219 30.031 15.031 30.031 15.844 29.719 16.563 29.094 17.188 Z M8.656 31.344 C11.844 34.469 15.625 36.031 20 36.031 24.375 36.031 28.125 34.469 31.25 31.344 34.438 28.156 36.031 24.375 36.031 20 36.031 15.625 34.438 11.875 31.25 8.75 28.125 5.563 24.375 3.969 20 3.969 15.625 3.969 11.844 5.563 8.656 8.75 5.531 11.875 3.969 15.625 3.969 20 3.969 24.375 5.531 28.156 8.656 31.344 Z M5.844 5.938 C9.781 2 14.5 0.031 20 0.031 25.5 0.031 30.188 2 34.063 5.938 38 9.813 39.969 14.5 39.969 20 39.969 25.5 38 30.219 34.063 34.156 30.188 38.031 25.5 39.969 20 39.969 14.5 39.969 9.781 38.031 5.844 34.156 1.969 30.219 0.031 25.5 0.031 20 0.031 14.5 1.969 9.813 5.844 5.938 Z" fill-opacity="1" fill="url(#linear-gradient)" stroke="none"/>
</svg>
