<svg width="161" height="96" viewBox="0 0 161 96" fill="none" xmlns="http://www.w3.org/2000/svg">
<path d="M22.462 8.946C23.1433 9.086 23.6613 9.36133 24.016 9.772C24.3707 10.1733 24.548 10.7007 24.548 11.354C24.548 12.2033 24.2447 12.8567 23.638 13.314C23.0407 13.7713 22.1587 14 20.992 14H16.652V4.2H20.726C21.7713 4.2 22.588 4.41467 23.176 4.844C23.764 5.27333 24.058 5.894 24.058 6.706C24.058 7.25667 23.918 7.72333 23.638 8.106C23.358 8.47933 22.966 8.75933 22.462 8.946ZM17.674 8.638H20.67C21.426 8.638 22.0047 8.484 22.406 8.176C22.8167 7.868 23.022 7.42 23.022 6.832C23.022 6.244 22.8167 5.796 22.406 5.488C22.0047 5.18 21.426 5.026 20.67 5.026H17.674V8.638ZM20.992 13.174C22.6813 13.174 23.526 12.544 23.526 11.284C23.526 10.052 22.6813 9.436 20.992 9.436H17.674V13.174H20.992ZM33.3403 10.626H27.1803C27.2363 11.3913 27.5303 12.012 28.0623 12.488C28.5943 12.9547 29.2663 13.188 30.0783 13.188C30.5357 13.188 30.9557 13.1087 31.3383 12.95C31.721 12.782 32.0523 12.5393 32.3323 12.222L32.8923 12.866C32.5657 13.258 32.155 13.5567 31.6603 13.762C31.175 13.9673 30.6383 14.07 30.0503 14.07C29.2943 14.07 28.6223 13.9113 28.0343 13.594C27.4557 13.2673 27.003 12.8193 26.6763 12.25C26.3497 11.6807 26.1863 11.0367 26.1863 10.318C26.1863 9.59933 26.3403 8.95533 26.6483 8.386C26.9657 7.81667 27.395 7.37333 27.9363 7.056C28.487 6.73867 29.103 6.58 29.7843 6.58C30.4657 6.58 31.077 6.73867 31.6183 7.056C32.1597 7.37333 32.5843 7.81667 32.8923 8.386C33.2003 8.946 33.3543 9.59 33.3543 10.318L33.3403 10.626ZM29.7843 7.434C29.075 7.434 28.4777 7.66267 27.9923 8.12C27.5163 8.568 27.2457 9.156 27.1803 9.884H32.4023C32.337 9.156 32.0617 8.568 31.5763 8.12C31.1003 7.66267 30.503 7.434 29.7843 7.434ZM41.4242 6.636V14H40.4302V7.518H36.9022L36.8042 9.338C36.7296 10.8687 36.5522 12.0447 36.2722 12.866C35.9922 13.6873 35.4929 14.098 34.7742 14.098C34.5782 14.098 34.3402 14.0607 34.0602 13.986L34.1302 13.132C34.2982 13.1693 34.4149 13.188 34.4802 13.188C34.8629 13.188 35.1522 13.0107 35.3482 12.656C35.5442 12.3013 35.6749 11.8627 35.7402 11.34C35.8056 10.8173 35.8616 10.1267 35.9082 9.268L36.0342 6.636H41.4242ZM44.2499 6.636H45.2439V12.488L50.1579 6.636H51.0399V14H50.0459V8.148L45.1459 14H44.2499V6.636ZM56.5626 10.724H54.8826V14H53.8886V6.636H54.8826V9.87H56.5766L59.1666 6.636H60.2446L57.3466 10.206L60.4546 14H59.2786L56.5626 10.724ZM64.8016 14.07C64.0923 14.07 63.4529 13.9113 62.8836 13.594C62.3143 13.2673 61.8663 12.8193 61.5396 12.25C61.2129 11.6807 61.0496 11.0367 61.0496 10.318C61.0496 9.59933 61.2129 8.95533 61.5396 8.386C61.8663 7.81667 62.3143 7.37333 62.8836 7.056C63.4529 6.73867 64.0923 6.58 64.8016 6.58C65.5109 6.58 66.1503 6.73867 66.7196 7.056C67.2889 7.37333 67.7323 7.81667 68.0496 8.386C68.3763 8.95533 68.5396 9.59933 68.5396 10.318C68.5396 11.0367 68.3763 11.6807 68.0496 12.25C67.7323 12.8193 67.2889 13.2673 66.7196 13.594C66.1503 13.9113 65.5109 14.07 64.8016 14.07ZM64.8016 13.188C65.3243 13.188 65.7909 13.0713 66.2016 12.838C66.6216 12.5953 66.9483 12.2547 67.1816 11.816C67.4149 11.3773 67.5316 10.878 67.5316 10.318C67.5316 9.758 67.4149 9.25867 67.1816 8.82C66.9483 8.38133 66.6216 8.04533 66.2016 7.812C65.7909 7.56933 65.3243 7.448 64.8016 7.448C64.2789 7.448 63.8076 7.56933 63.3876 7.812C62.9769 8.04533 62.6503 8.38133 62.4076 8.82C62.1743 9.25867 62.0576 9.758 62.0576 10.318C62.0576 10.878 62.1743 11.3773 62.4076 11.816C62.6503 12.2547 62.9769 12.5953 63.3876 12.838C63.8076 13.0713 64.2789 13.188 64.8016 13.188ZM76.643 6.636V14H75.649V7.518H72.121L72.023 9.338C71.9483 10.8687 71.771 12.0447 71.491 12.866C71.211 13.6873 70.7117 14.098 69.993 14.098C69.797 14.098 69.559 14.0607 69.279 13.986L69.349 13.132C69.517 13.1693 69.6337 13.188 69.699 13.188C70.0817 13.188 70.371 13.0107 70.567 12.656C70.763 12.3013 70.8937 11.8627 70.959 11.34C71.0243 10.8173 71.0803 10.1267 71.127 9.268L71.253 6.636H76.643ZM85.9087 10.626H79.7487C79.8047 11.3913 80.0987 12.012 80.6307 12.488C81.1627 12.9547 81.8347 13.188 82.6467 13.188C83.104 13.188 83.524 13.1087 83.9067 12.95C84.2894 12.782 84.6207 12.5393 84.9007 12.222L85.4607 12.866C85.134 13.258 84.7234 13.5567 84.2287 13.762C83.7434 13.9673 83.2067 14.07 82.6187 14.07C81.8627 14.07 81.1907 13.9113 80.6027 13.594C80.024 13.2673 79.5714 12.8193 79.2447 12.25C78.918 11.6807 78.7547 11.0367 78.7547 10.318C78.7547 9.59933 78.9087 8.95533 79.2167 8.386C79.534 7.81667 79.9634 7.37333 80.5047 7.056C81.0554 6.73867 81.6714 6.58 82.3527 6.58C83.034 6.58 83.6454 6.73867 84.1867 7.056C84.728 7.37333 85.1527 7.81667 85.4607 8.386C85.7687 8.946 85.9227 9.59 85.9227 10.318L85.9087 10.626ZM82.3527 7.434C81.6434 7.434 81.046 7.66267 80.5607 8.12C80.0847 8.568 79.814 9.156 79.7487 9.884H84.9707C84.9054 9.156 84.63 8.568 84.1447 8.12C83.6687 7.66267 83.0714 7.434 82.3527 7.434ZM94.731 6.636V14H93.737V7.518H89.117V14H88.123V6.636H94.731ZM97.5566 6.636H98.5506V9.898H103.185V6.636H104.179V14H103.185V10.752H98.5506V14H97.5566V6.636ZM110.042 14.07C109.333 14.07 108.693 13.9113 108.124 13.594C107.555 13.2673 107.107 12.8193 106.78 12.25C106.453 11.6807 106.29 11.0367 106.29 10.318C106.29 9.59933 106.453 8.95533 106.78 8.386C107.107 7.81667 107.555 7.37333 108.124 7.056C108.693 6.73867 109.333 6.58 110.042 6.58C110.751 6.58 111.391 6.73867 111.96 7.056C112.529 7.37333 112.973 7.81667 113.29 8.386C113.617 8.95533 113.78 9.59933 113.78 10.318C113.78 11.0367 113.617 11.6807 113.29 12.25C112.973 12.8193 112.529 13.2673 111.96 13.594C111.391 13.9113 110.751 14.07 110.042 14.07ZM110.042 13.188C110.565 13.188 111.031 13.0713 111.442 12.838C111.862 12.5953 112.189 12.2547 112.422 11.816C112.655 11.3773 112.772 10.878 112.772 10.318C112.772 9.758 112.655 9.25867 112.422 8.82C112.189 8.38133 111.862 8.04533 111.442 7.812C111.031 7.56933 110.565 7.448 110.042 7.448C109.519 7.448 109.048 7.56933 108.628 7.812C108.217 8.04533 107.891 8.38133 107.648 8.82C107.415 9.25867 107.298 9.758 107.298 10.318C107.298 10.878 107.415 11.3773 107.648 11.816C107.891 12.2547 108.217 12.5953 108.628 12.838C109.048 13.0713 109.519 13.188 110.042 13.188ZM16.75 28.2L19.536 32.078L22.308 28.2H23.526L20.18 32.904L23.792 38H22.574L19.536 33.786L16.498 38H15.308L18.906 32.946L15.56 28.2H16.75ZM28.1336 38.07C27.4243 38.07 26.785 37.9113 26.2156 37.594C25.6463 37.2673 25.1983 36.8193 24.8716 36.25C24.545 35.6807 24.3816 35.0367 24.3816 34.318C24.3816 33.5993 24.545 32.9553 24.8716 32.386C25.1983 31.8167 25.6463 31.3733 26.2156 31.056C26.785 30.7387 27.4243 30.58 28.1336 30.58C28.843 30.58 29.4823 30.7387 30.0516 31.056C30.621 31.3733 31.0643 31.8167 31.3816 32.386C31.7083 32.9553 31.8716 33.5993 31.8716 34.318C31.8716 35.0367 31.7083 35.6807 31.3816 36.25C31.0643 36.8193 30.621 37.2673 30.0516 37.594C29.4823 37.9113 28.843 38.07 28.1336 38.07ZM28.1336 37.188C28.6563 37.188 29.123 37.0713 29.5336 36.838C29.9536 36.5953 30.2803 36.2547 30.5136 35.816C30.747 35.3773 30.8636 34.878 30.8636 34.318C30.8636 33.758 30.747 33.2587 30.5136 32.82C30.2803 32.3813 29.9536 32.0453 29.5336 31.812C29.123 31.5693 28.6563 31.448 28.1336 31.448C27.611 31.448 27.1396 31.5693 26.7196 31.812C26.309 32.0453 25.9823 32.3813 25.7396 32.82C25.5063 33.2587 25.3896 33.758 25.3896 34.318C25.3896 34.878 25.5063 35.3773 25.7396 35.816C25.9823 36.2547 26.309 36.5953 26.7196 36.838C27.1396 37.0713 27.611 37.188 28.1336 37.188ZM37.79 30.58C38.4807 30.58 39.106 30.7387 39.666 31.056C40.226 31.364 40.6647 31.8027 40.982 32.372C41.2994 32.9413 41.458 33.59 41.458 34.318C41.458 35.0553 41.2994 35.7087 40.982 36.278C40.6647 36.8473 40.226 37.2907 39.666 37.608C39.1154 37.916 38.49 38.07 37.79 38.07C37.1927 38.07 36.6514 37.9487 36.166 37.706C35.69 37.454 35.298 37.09 34.99 36.614V40.716H33.996V30.636H34.948V32.092C35.2467 31.6067 35.6387 31.2333 36.124 30.972C36.6187 30.7107 37.174 30.58 37.79 30.58ZM37.72 37.188C38.2334 37.188 38.7 37.0713 39.12 36.838C39.54 36.5953 39.8667 36.2547 40.1 35.816C40.3427 35.3773 40.464 34.878 40.464 34.318C40.464 33.758 40.3427 33.2633 40.1 32.834C39.8667 32.3953 39.54 32.0547 39.12 31.812C38.7 31.5693 38.2334 31.448 37.72 31.448C37.1974 31.448 36.726 31.5693 36.306 31.812C35.8954 32.0547 35.5687 32.3953 35.326 32.834C35.0927 33.2633 34.976 33.758 34.976 34.318C34.976 34.878 35.0927 35.3773 35.326 35.816C35.5687 36.2547 35.8954 36.5953 36.306 36.838C36.726 37.0713 37.1974 37.188 37.72 37.188ZM46.6317 38.07C45.9224 38.07 45.283 37.9113 44.7137 37.594C44.1444 37.2673 43.6964 36.8193 43.3697 36.25C43.043 35.6807 42.8797 35.0367 42.8797 34.318C42.8797 33.5993 43.043 32.9553 43.3697 32.386C43.6964 31.8167 44.1444 31.3733 44.7137 31.056C45.283 30.7387 45.9224 30.58 46.6317 30.58C47.341 30.58 47.9804 30.7387 48.5497 31.056C49.119 31.3733 49.5624 31.8167 49.8797 32.386C50.2064 32.9553 50.3697 33.5993 50.3697 34.318C50.3697 35.0367 50.2064 35.6807 49.8797 36.25C49.5624 36.8193 49.119 37.2673 48.5497 37.594C47.9804 37.9113 47.341 38.07 46.6317 38.07ZM46.6317 37.188C47.1544 37.188 47.621 37.0713 48.0317 36.838C48.4517 36.5953 48.7784 36.2547 49.0117 35.816C49.245 35.3773 49.3617 34.878 49.3617 34.318C49.3617 33.758 49.245 33.2587 49.0117 32.82C48.7784 32.3813 48.4517 32.0453 48.0317 31.812C47.621 31.5693 47.1544 31.448 46.6317 31.448C46.109 31.448 45.6377 31.5693 45.2177 31.812C44.807 32.0453 44.4804 32.3813 44.2377 32.82C44.0044 33.2587 43.8877 33.758 43.8877 34.318C43.8877 34.878 44.0044 35.3773 44.2377 35.816C44.4804 36.2547 44.807 36.5953 45.2177 36.838C45.6377 37.0713 46.109 37.188 46.6317 37.188ZM62.6581 30.636V38H52.4941V30.636H53.4881V37.132H57.1001V30.636H58.0941V37.132H61.6641V30.636H62.6581ZM68.534 38.07C67.8247 38.07 67.1854 37.9113 66.616 37.594C66.0467 37.2673 65.5987 36.8193 65.272 36.25C64.9454 35.6807 64.782 35.0367 64.782 34.318C64.782 33.5993 64.9454 32.9553 65.272 32.386C65.5987 31.8167 66.0467 31.3733 66.616 31.056C67.1854 30.7387 67.8247 30.58 68.534 30.58C69.2434 30.58 69.8827 30.7387 70.452 31.056C71.0214 31.3733 71.4647 31.8167 71.782 32.386C72.1087 32.9553 72.272 33.5993 72.272 34.318C72.272 35.0367 72.1087 35.6807 71.782 36.25C71.4647 36.8193 71.0214 37.2673 70.452 37.594C69.8827 37.9113 69.2434 38.07 68.534 38.07ZM68.534 37.188C69.0567 37.188 69.5234 37.0713 69.934 36.838C70.354 36.5953 70.6807 36.2547 70.914 35.816C71.1474 35.3773 71.264 34.878 71.264 34.318C71.264 33.758 71.1474 33.2587 70.914 32.82C70.6807 32.3813 70.354 32.0453 69.934 31.812C69.5234 31.5693 69.0567 31.448 68.534 31.448C68.0114 31.448 67.54 31.5693 67.12 31.812C66.7094 32.0453 66.3827 32.3813 66.14 32.82C65.9067 33.2587 65.79 33.758 65.79 34.318C65.79 34.878 65.9067 35.3773 66.14 35.816C66.3827 36.2547 66.7094 36.5953 67.12 36.838C67.54 37.0713 68.0114 37.188 68.534 37.188ZM24.352 52.2L19.9 60.446C19.5827 61.034 19.2093 61.4727 18.78 61.762C18.36 62.042 17.898 62.182 17.394 62.182C17.0207 62.182 16.6193 62.0933 16.19 61.916L16.484 61.076C16.82 61.2067 17.128 61.272 17.408 61.272C18.052 61.272 18.5793 60.922 18.99 60.222L19.27 59.746L15.294 52.2H16.4L19.816 58.836L23.316 52.2H24.352ZM32.6194 61.132V63.778H31.6814V62H25.0874V63.778H24.1494V61.132H24.5694C25.0641 61.104 25.4001 60.74 25.5774 60.04C25.7548 59.34 25.8761 58.36 25.9414 57.1L26.0394 54.636H31.4714V61.132H32.6194ZM26.8514 57.156C26.8048 58.2013 26.7161 59.0647 26.5854 59.746C26.4548 60.418 26.2214 60.88 25.8854 61.132H30.4774V55.518H26.9354L26.8514 57.156ZM37.5946 62.07C36.8852 62.07 36.2459 61.9113 35.6766 61.594C35.1072 61.2673 34.6592 60.8193 34.3326 60.25C34.0059 59.6807 33.8426 59.0367 33.8426 58.318C33.8426 57.5993 34.0059 56.9553 34.3326 56.386C34.6592 55.8167 35.1072 55.3733 35.6766 55.056C36.2459 54.7387 36.8852 54.58 37.5946 54.58C38.3039 54.58 38.9432 54.7387 39.5126 55.056C40.0819 55.3733 40.5252 55.8167 40.8426 56.386C41.1692 56.9553 41.3326 57.5993 41.3326 58.318C41.3326 59.0367 41.1692 59.6807 40.8426 60.25C40.5252 60.8193 40.0819 61.2673 39.5126 61.594C38.9432 61.9113 38.3039 62.07 37.5946 62.07ZM37.5946 61.188C38.1172 61.188 38.5839 61.0713 38.9946 60.838C39.4146 60.5953 39.7412 60.2547 39.9746 59.816C40.2079 59.3773 40.3246 58.878 40.3246 58.318C40.3246 57.758 40.2079 57.2587 39.9746 56.82C39.7412 56.3813 39.4146 56.0453 38.9946 55.812C38.5839 55.5693 38.1172 55.448 37.5946 55.448C37.0719 55.448 36.6006 55.5693 36.1806 55.812C35.7699 56.0453 35.4432 56.3813 35.2006 56.82C34.9672 57.2587 34.8506 57.758 34.8506 58.318C34.8506 58.878 34.9672 59.3773 35.2006 59.816C35.4432 60.2547 35.7699 60.5953 36.1806 60.838C36.6006 61.0713 37.0719 61.188 37.5946 61.188ZM48.147 58.192C49.1456 58.4253 49.645 59.0273 49.645 59.998C49.645 60.642 49.407 61.1367 48.931 61.482C48.455 61.8273 47.7456 62 46.803 62H43.457V54.636H46.705C47.545 54.636 48.203 54.7993 48.679 55.126C49.155 55.4527 49.393 55.9193 49.393 56.526C49.393 56.9273 49.281 57.2727 49.057 57.562C48.8423 57.842 48.539 58.052 48.147 58.192ZM44.423 57.912H46.635C47.2043 57.912 47.6383 57.8047 47.937 57.59C48.245 57.3753 48.399 57.0627 48.399 56.652C48.399 56.2413 48.245 55.9333 47.937 55.728C47.6383 55.5227 47.2043 55.42 46.635 55.42H44.423V57.912ZM46.761 61.216C47.3956 61.216 47.8716 61.1133 48.189 60.908C48.5063 60.7027 48.665 60.3807 48.665 59.942C48.665 59.5033 48.5203 59.1813 48.231 58.976C47.9416 58.7613 47.4843 58.654 46.859 58.654H44.423V61.216H46.761ZM57.9945 54.636V62H57.0005V55.518H53.4725L53.3745 57.338C53.2999 58.8687 53.1225 60.0447 52.8425 60.866C52.5625 61.6873 52.0632 62.098 51.3445 62.098C51.1485 62.098 50.9105 62.0607 50.6305 61.986L50.7005 61.132C50.8685 61.1693 50.9852 61.188 51.0505 61.188C51.4332 61.188 51.7225 61.0107 51.9185 60.656C52.1145 60.3013 52.2452 59.8627 52.3105 59.34C52.3759 58.8173 52.4319 58.1267 52.4785 57.268L52.6045 54.636H57.9945ZM67.2603 58.626H61.1003C61.1563 59.3913 61.4503 60.012 61.9823 60.488C62.5143 60.9547 63.1863 61.188 63.9983 61.188C64.4556 61.188 64.8756 61.1087 65.2583 60.95C65.6409 60.782 65.9723 60.5393 66.2523 60.222L66.8123 60.866C66.4856 61.258 66.0749 61.5567 65.5803 61.762C65.0949 61.9673 64.5583 62.07 63.9703 62.07C63.2143 62.07 62.5423 61.9113 61.9543 61.594C61.3756 61.2673 60.9229 60.8193 60.5963 60.25C60.2696 59.6807 60.1063 59.0367 60.1063 58.318C60.1063 57.5993 60.2603 56.9553 60.5683 56.386C60.8856 55.8167 61.3149 55.3733 61.8563 55.056C62.4069 54.7387 63.0229 54.58 63.7043 54.58C64.3856 54.58 64.9969 54.7387 65.5383 55.056C66.0796 55.3733 66.5043 55.8167 66.8123 56.386C67.1203 56.946 67.2743 57.59 67.2743 58.318L67.2603 58.626ZM63.7043 55.434C62.9949 55.434 62.3976 55.6627 61.9123 56.12C61.4363 56.568 61.1656 57.156 61.1003 57.884H66.3223C66.2569 57.156 65.9816 56.568 65.4963 56.12C65.0203 55.6627 64.4229 55.434 63.7043 55.434ZM74.3264 55.518H71.5404V62H70.5464V55.518H67.7604V54.636H74.3264V55.518ZM80.4536 58.192C81.4523 58.4253 81.9516 59.0273 81.9516 59.998C81.9516 60.642 81.7136 61.1367 81.2376 61.482C80.7616 61.8273 80.0523 62 79.1096 62H75.7636V54.636H79.0116C79.8516 54.636 80.5096 54.7993 80.9856 55.126C81.4616 55.4527 81.6996 55.9193 81.6996 56.526C81.6996 56.9273 81.5876 57.2727 81.3636 57.562C81.1489 57.842 80.8456 58.052 80.4536 58.192ZM76.7296 57.912H78.9416C79.5109 57.912 79.9449 57.8047 80.2436 57.59C80.5516 57.3753 80.7056 57.0627 80.7056 56.652C80.7056 56.2413 80.5516 55.9333 80.2436 55.728C79.9449 55.5227 79.5109 55.42 78.9416 55.42H76.7296V57.912ZM79.0676 61.216C79.7023 61.216 80.1783 61.1133 80.4956 60.908C80.8129 60.7027 80.9716 60.3807 80.9716 59.942C80.9716 59.5033 80.8269 59.1813 80.5376 58.976C80.2483 58.7613 79.7909 58.654 79.1656 58.654H76.7296V61.216H79.0676ZM87.3192 62.07C86.6099 62.07 85.9705 61.9113 85.4012 61.594C84.8319 61.2673 84.3839 60.8193 84.0572 60.25C83.7305 59.6807 83.5672 59.0367 83.5672 58.318C83.5672 57.5993 83.7305 56.9553 84.0572 56.386C84.3839 55.8167 84.8319 55.3733 85.4012 55.056C85.9705 54.7387 86.6099 54.58 87.3192 54.58C88.0285 54.58 88.6679 54.7387 89.2372 55.056C89.8065 55.3733 90.2499 55.8167 90.5672 56.386C90.8939 56.9553 91.0572 57.5993 91.0572 58.318C91.0572 59.0367 90.8939 59.6807 90.5672 60.25C90.2499 60.8193 89.8065 61.2673 89.2372 61.594C88.6679 61.9113 88.0285 62.07 87.3192 62.07ZM87.3192 61.188C87.8419 61.188 88.3085 61.0713 88.7192 60.838C89.1392 60.5953 89.4659 60.2547 89.6992 59.816C89.9325 59.3773 90.0492 58.878 90.0492 58.318C90.0492 57.758 89.9325 57.2587 89.6992 56.82C89.4659 56.3813 89.1392 56.0453 88.7192 55.812C88.3085 55.5693 87.8419 55.448 87.3192 55.448C86.7965 55.448 86.3252 55.5693 85.9052 55.812C85.4945 56.0453 85.1679 56.3813 84.9252 56.82C84.6919 57.2587 84.5752 57.758 84.5752 58.318C84.5752 58.878 84.6919 59.3773 84.9252 59.816C85.1679 60.2547 85.4945 60.5953 85.9052 60.838C86.3252 61.0713 86.7965 61.188 87.3192 61.188ZM96.9756 54.58C97.6662 54.58 98.2916 54.7387 98.8516 55.056C99.4116 55.364 99.8502 55.8027 100.168 56.372C100.485 56.9413 100.644 57.59 100.644 58.318C100.644 59.0553 100.485 59.7087 100.168 60.278C99.8502 60.8473 99.4116 61.2907 98.8516 61.608C98.3009 61.916 97.6756 62.07 96.9756 62.07C96.3782 62.07 95.8369 61.9487 95.3516 61.706C94.8756 61.454 94.4836 61.09 94.1756 60.614V64.716H93.1816V54.636H94.1336V56.092C94.4322 55.6067 94.8242 55.2333 95.3096 54.972C95.8042 54.7107 96.3596 54.58 96.9756 54.58ZM96.9056 61.188C97.4189 61.188 97.8856 61.0713 98.3056 60.838C98.7256 60.5953 99.0522 60.2547 99.2856 59.816C99.5282 59.3773 99.6496 58.878 99.6496 58.318C99.6496 57.758 99.5282 57.2633 99.2856 56.834C99.0522 56.3953 98.7256 56.0547 98.3056 55.812C97.8856 55.5693 97.4189 55.448 96.9056 55.448C96.3829 55.448 95.9116 55.5693 95.4916 55.812C95.0809 56.0547 94.7542 56.3953 94.5116 56.834C94.2782 57.2633 94.1616 57.758 94.1616 58.318C94.1616 58.878 94.2782 59.3773 94.5116 59.816C94.7542 60.2547 95.0809 60.5953 95.4916 60.838C95.9116 61.0713 96.3829 61.188 96.9056 61.188ZM102.779 54.636H103.773V60.488L108.687 54.636H109.569V62H108.575V56.148L103.675 62H102.779V54.636ZM117.598 55.518H114.812V62H113.818V55.518H111.032V54.636H117.598V55.518ZM125.133 58.626H118.973C119.029 59.3913 119.323 60.012 119.855 60.488C120.387 60.9547 121.059 61.188 121.871 61.188C122.329 61.188 122.749 61.1087 123.131 60.95C123.514 60.782 123.845 60.5393 124.125 60.222L124.685 60.866C124.359 61.258 123.948 61.5567 123.453 61.762C122.968 61.9673 122.431 62.07 121.843 62.07C121.087 62.07 120.415 61.9113 119.827 61.594C119.249 61.2673 118.796 60.8193 118.469 60.25C118.143 59.6807 117.979 59.0367 117.979 58.318C117.979 57.5993 118.133 56.9553 118.441 56.386C118.759 55.8167 119.188 55.3733 119.729 55.056C120.28 54.7387 120.896 54.58 121.577 54.58C122.259 54.58 122.87 54.7387 123.411 55.056C123.953 55.3733 124.377 55.8167 124.685 56.386C124.993 56.946 125.147 57.59 125.147 58.318L125.133 58.626ZM121.577 55.434C120.868 55.434 120.271 55.6627 119.785 56.12C119.309 56.568 119.039 57.156 118.973 57.884H124.195C124.13 57.156 123.855 56.568 123.369 56.12C122.893 55.6627 122.296 55.434 121.577 55.434ZM133.217 54.636V62H132.223V55.518H128.695L128.597 57.338C128.523 58.8687 128.345 60.0447 128.065 60.866C127.785 61.6873 127.286 62.098 126.567 62.098C126.371 62.098 126.133 62.0607 125.853 61.986L125.923 61.132C126.091 61.1693 126.208 61.188 126.273 61.188C126.656 61.188 126.945 61.0107 127.141 60.656C127.337 60.3013 127.468 59.8627 127.533 59.34C127.599 58.8173 127.655 58.1267 127.701 57.268L127.827 54.636H133.217ZM139.207 57.24C140.131 57.2493 140.831 57.4547 141.307 57.856C141.792 58.2573 142.035 58.836 142.035 59.592C142.035 60.376 141.774 60.978 141.251 61.398C140.738 61.818 139.991 62.0233 139.011 62.014L136.043 62V54.636H137.037V57.212L139.207 57.24ZM138.955 61.258C139.636 61.2673 140.15 61.132 140.495 60.852C140.85 60.5627 141.027 60.1427 141.027 59.592C141.027 59.0507 140.854 58.6493 140.509 58.388C140.164 58.1267 139.646 57.9913 138.955 57.982L137.037 57.954V61.23L138.955 61.258ZM143.932 54.636H144.926V57.898H149.56V54.636H150.554V62H149.56V58.752H144.926V62H143.932V54.636ZM156.417 62.07C155.708 62.07 155.068 61.9113 154.499 61.594C153.93 61.2673 153.482 60.8193 153.155 60.25C152.828 59.6807 152.665 59.0367 152.665 58.318C152.665 57.5993 152.828 56.9553 153.155 56.386C153.482 55.8167 153.93 55.3733 154.499 55.056C155.068 54.7387 155.708 54.58 156.417 54.58C157.126 54.58 157.766 54.7387 158.335 55.056C158.904 55.3733 159.348 55.8167 159.665 56.386C159.992 56.9553 160.155 57.5993 160.155 58.318C160.155 59.0367 159.992 59.6807 159.665 60.25C159.348 60.8193 158.904 61.2673 158.335 61.594C157.766 61.9113 157.126 62.07 156.417 62.07ZM156.417 61.188C156.94 61.188 157.406 61.0713 157.817 60.838C158.237 60.5953 158.564 60.2547 158.797 59.816C159.03 59.3773 159.147 58.878 159.147 58.318C159.147 57.758 159.03 57.2587 158.797 56.82C158.564 56.3813 158.237 56.0453 157.817 55.812C157.406 55.5693 156.94 55.448 156.417 55.448C155.894 55.448 155.423 55.5693 155.003 55.812C154.592 56.0453 154.266 56.3813 154.023 56.82C153.79 57.2587 153.673 57.758 153.673 58.318C153.673 58.878 153.79 59.3773 154.023 59.816C154.266 60.2547 154.592 60.5953 155.003 60.838C155.423 61.0713 155.894 61.188 156.417 61.188ZM20.32 76.2C21.5707 76.2 22.5507 76.4987 23.26 77.096C23.9693 77.6933 24.324 78.5147 24.324 79.56C24.324 80.6053 23.9693 81.4267 23.26 82.024C22.5507 82.612 21.5707 82.906 20.32 82.906H17.688V86H16.652V76.2H20.32ZM20.292 81.996C21.2627 81.996 22.0047 81.786 22.518 81.366C23.0313 80.9367 23.288 80.3347 23.288 79.56C23.288 78.7667 23.0313 78.16 22.518 77.74C22.0047 77.3107 21.2627 77.096 20.292 77.096H17.688V81.996H20.292ZM28.6824 78.58C29.6437 78.58 30.381 78.8227 30.8944 79.308C31.4077 79.784 31.6644 80.4933 31.6644 81.436V86H30.7124V84.852C30.4884 85.2347 30.157 85.5333 29.7184 85.748C29.289 85.9627 28.7757 86.07 28.1784 86.07C27.357 86.07 26.7037 85.874 26.2184 85.482C25.733 85.09 25.4904 84.572 25.4904 83.928C25.4904 83.3027 25.7144 82.7987 26.1624 82.416C26.6197 82.0333 27.343 81.842 28.3324 81.842H30.6704V81.394C30.6704 80.7593 30.493 80.2787 30.1384 79.952C29.7837 79.616 29.2657 79.448 28.5844 79.448C28.1177 79.448 27.6697 79.5273 27.2404 79.686C26.811 79.8353 26.4424 80.0453 26.1344 80.316L25.6864 79.574C26.0597 79.2567 26.5077 79.014 27.0304 78.846C27.553 78.6687 28.1037 78.58 28.6824 78.58ZM28.3324 85.286C28.8924 85.286 29.373 85.16 29.7744 84.908C30.1757 84.6467 30.4744 84.2733 30.6704 83.788V82.584H28.3604C27.1004 82.584 26.4704 83.0227 26.4704 83.9C26.4704 84.3293 26.6337 84.67 26.9604 84.922C27.287 85.1647 27.7444 85.286 28.3324 85.286ZM37.7441 82.164C38.2668 82.2853 38.6681 82.4953 38.9481 82.794C39.2374 83.0927 39.3821 83.4567 39.3821 83.886C39.3821 84.3153 39.2328 84.698 38.9341 85.034C38.6448 85.37 38.2481 85.6313 37.7441 85.818C37.2401 85.9953 36.6848 86.084 36.0781 86.084C35.5461 86.084 35.0234 86.0093 34.5101 85.86C33.9968 85.7013 33.5488 85.4727 33.1661 85.174L33.5021 84.432C33.8381 84.684 34.2301 84.88 34.6781 85.02C35.1261 85.16 35.5788 85.23 36.0361 85.23C36.7174 85.23 37.2728 85.104 37.7021 84.852C38.1408 84.5907 38.3601 84.2407 38.3601 83.802C38.3601 83.41 38.1828 83.1067 37.8281 82.892C37.4734 82.668 36.9881 82.556 36.3721 82.556H35.1121V81.828H36.3161C36.8668 81.828 37.3101 81.7253 37.6461 81.52C37.9821 81.3053 38.1501 81.0207 38.1501 80.666C38.1501 80.274 37.9588 79.966 37.5761 79.742C37.2028 79.518 36.7128 79.406 36.1061 79.406C35.3128 79.406 34.5288 79.6067 33.7541 80.008L33.4741 79.238C34.3514 78.7807 35.2614 78.552 36.2041 78.552C36.7641 78.552 37.2681 78.636 37.7161 78.804C38.1734 78.9627 38.5281 79.1913 38.7801 79.49C39.0414 79.7887 39.1721 80.134 39.1721 80.526C39.1721 80.8993 39.0414 81.2307 38.7801 81.52C38.5281 81.8093 38.1828 82.024 37.7441 82.164ZM44.6766 86.07C43.9673 86.07 43.3279 85.9113 42.7586 85.594C42.1893 85.2673 41.7413 84.8193 41.4146 84.25C41.0879 83.6807 40.9246 83.0367 40.9246 82.318C40.9246 81.5993 41.0879 80.9553 41.4146 80.386C41.7413 79.8167 42.1893 79.3733 42.7586 79.056C43.3279 78.7387 43.9673 78.58 44.6766 78.58C45.3859 78.58 46.0253 78.7387 46.5946 79.056C47.1639 79.3733 47.6073 79.8167 47.9246 80.386C48.2513 80.9553 48.4146 81.5993 48.4146 82.318C48.4146 83.0367 48.2513 83.6807 47.9246 84.25C47.6073 84.8193 47.1639 85.2673 46.5946 85.594C46.0253 85.9113 45.3859 86.07 44.6766 86.07ZM44.6766 85.188C45.1993 85.188 45.6659 85.0713 46.0766 84.838C46.4966 84.5953 46.8233 84.2547 47.0566 83.816C47.2899 83.3773 47.4066 82.878 47.4066 82.318C47.4066 81.758 47.2899 81.2587 47.0566 80.82C46.8233 80.3813 46.4966 80.0453 46.0766 79.812C45.6659 79.5693 45.1993 79.448 44.6766 79.448C44.1539 79.448 43.6826 79.5693 43.2626 79.812C42.8519 80.0453 42.5253 80.3813 42.2826 80.82C42.0493 81.2587 41.9326 81.758 41.9326 82.318C41.9326 82.878 42.0493 83.3773 42.2826 83.816C42.5253 84.2547 42.8519 84.5953 43.2626 84.838C43.6826 85.0713 44.1539 85.188 44.6766 85.188ZM56.097 78.636V86H55.103V82.934C54.2537 83.3073 53.4183 83.494 52.597 83.494C51.7103 83.494 51.0197 83.2933 50.525 82.892C50.0303 82.4813 49.783 81.87 49.783 81.058V78.636H50.777V81.002C50.777 81.5527 50.9543 81.9727 51.309 82.262C51.6637 82.542 52.1537 82.682 52.779 82.682C53.4697 82.682 54.2443 82.5 55.103 82.136V78.636H56.097ZM61.4539 78.58C62.4152 78.58 63.1525 78.8227 63.6659 79.308C64.1792 79.784 64.4359 80.4933 64.4359 81.436V86H63.4839V84.852C63.2599 85.2347 62.9285 85.5333 62.4899 85.748C62.0605 85.9627 61.5472 86.07 60.9499 86.07C60.1285 86.07 59.4752 85.874 58.9899 85.482C58.5045 85.09 58.2619 84.572 58.2619 83.928C58.2619 83.3027 58.4859 82.7987 58.9339 82.416C59.3912 82.0333 60.1145 81.842 61.1039 81.842H63.4419V81.394C63.4419 80.7593 63.2645 80.2787 62.9099 79.952C62.5552 79.616 62.0372 79.448 61.3559 79.448C60.8892 79.448 60.4412 79.5273 60.0119 79.686C59.5825 79.8353 59.2139 80.0453 58.9059 80.316L58.4579 79.574C58.8312 79.2567 59.2792 79.014 59.8019 78.846C60.3245 78.6687 60.8752 78.58 61.4539 78.58ZM61.1039 85.286C61.6639 85.286 62.1445 85.16 62.5459 84.908C62.9472 84.6467 63.2459 84.2733 63.4419 83.788V82.584H61.1319C59.8719 82.584 59.2419 83.0227 59.2419 83.9C59.2419 84.3293 59.4052 84.67 59.7319 84.922C60.0585 85.1647 60.5159 85.286 61.1039 85.286ZM70.876 78.58C71.5666 78.58 72.192 78.7387 72.752 79.056C73.312 79.364 73.7506 79.8027 74.068 80.372C74.3853 80.9413 74.544 81.59 74.544 82.318C74.544 83.0553 74.3853 83.7087 74.068 84.278C73.7506 84.8473 73.312 85.2907 72.752 85.608C72.2013 85.916 71.576 86.07 70.876 86.07C70.2786 86.07 69.7373 85.9487 69.252 85.706C68.776 85.454 68.384 85.09 68.076 84.614V88.716H67.082V78.636H68.034V80.092C68.3326 79.6067 68.7246 79.2333 69.21 78.972C69.7046 78.7107 70.26 78.58 70.876 78.58ZM70.806 85.188C71.3193 85.188 71.786 85.0713 72.206 84.838C72.626 84.5953 72.9526 84.2547 73.186 83.816C73.4286 83.3773 73.55 82.878 73.55 82.318C73.55 81.758 73.4286 81.2633 73.186 80.834C72.9526 80.3953 72.626 80.0547 72.206 79.812C71.786 79.5693 71.3193 79.448 70.806 79.448C70.2833 79.448 69.812 79.5693 69.392 79.812C68.9813 80.0547 68.6546 80.3953 68.412 80.834C68.1786 81.2633 68.062 81.758 68.062 82.318C68.062 82.878 68.1786 83.3773 68.412 83.816C68.6546 84.2547 68.9813 84.5953 69.392 84.838C69.812 85.0713 70.2833 85.188 70.806 85.188ZM79.7176 86.07C79.0083 86.07 78.369 85.9113 77.7996 85.594C77.2303 85.2673 76.7823 84.8193 76.4556 84.25C76.129 83.6807 75.9656 83.0367 75.9656 82.318C75.9656 81.5993 76.129 80.9553 76.4556 80.386C76.7823 79.8167 77.2303 79.3733 77.7996 79.056C78.369 78.7387 79.0083 78.58 79.7176 78.58C80.427 78.58 81.0663 78.7387 81.6356 79.056C82.205 79.3733 82.6483 79.8167 82.9656 80.386C83.2923 80.9553 83.4556 81.5993 83.4556 82.318C83.4556 83.0367 83.2923 83.6807 82.9656 84.25C82.6483 84.8193 82.205 85.2673 81.6356 85.594C81.0663 85.9113 80.427 86.07 79.7176 86.07ZM79.7176 85.188C80.2403 85.188 80.707 85.0713 81.1176 84.838C81.5376 84.5953 81.8643 84.2547 82.0976 83.816C82.331 83.3773 82.4476 82.878 82.4476 82.318C82.4476 81.758 82.331 81.2587 82.0976 80.82C81.8643 80.3813 81.5376 80.0453 81.1176 79.812C80.707 79.5693 80.2403 79.448 79.7176 79.448C79.195 79.448 78.7236 79.5693 78.3036 79.812C77.893 80.0453 77.5663 80.3813 77.3236 80.82C77.0903 81.2587 76.9736 81.758 76.9736 82.318C76.9736 82.878 77.0903 83.3773 77.3236 83.816C77.5663 84.2547 77.893 84.5953 78.3036 84.838C78.7236 85.0713 79.195 85.188 79.7176 85.188ZM90.27 82.192C91.2687 82.4253 91.768 83.0273 91.768 83.998C91.768 84.642 91.53 85.1367 91.054 85.482C90.578 85.8273 89.8687 86 88.926 86H85.58V78.636H88.828C89.668 78.636 90.326 78.7993 90.802 79.126C91.278 79.4527 91.516 79.9193 91.516 80.526C91.516 80.9273 91.404 81.2727 91.18 81.562C90.9653 81.842 90.662 82.052 90.27 82.192ZM86.546 81.912H88.758C89.3273 81.912 89.7613 81.8047 90.06 81.59C90.368 81.3753 90.522 81.0627 90.522 80.652C90.522 80.2413 90.368 79.9333 90.06 79.728C89.7613 79.5227 89.3273 79.42 88.758 79.42H86.546V81.912ZM88.884 85.216C89.5187 85.216 89.9947 85.1133 90.312 84.908C90.6293 84.7027 90.788 84.3807 90.788 83.942C90.788 83.5033 90.6433 83.1813 90.354 82.976C90.0647 82.7613 89.6073 82.654 88.982 82.654H86.546V85.216H88.884ZM96.6316 78.58C97.5929 78.58 98.3303 78.8227 98.8436 79.308C99.3569 79.784 99.6136 80.4933 99.6136 81.436V86H98.6616V84.852C98.4376 85.2347 98.1063 85.5333 97.6676 85.748C97.2383 85.9627 96.7249 86.07 96.1276 86.07C95.3063 86.07 94.6529 85.874 94.1676 85.482C93.6823 85.09 93.4396 84.572 93.4396 83.928C93.4396 83.3027 93.6636 82.7987 94.1116 82.416C94.5689 82.0333 95.2923 81.842 96.2816 81.842H98.6196V81.394C98.6196 80.7593 98.4423 80.2787 98.0876 79.952C97.7329 79.616 97.2149 79.448 96.5336 79.448C96.0669 79.448 95.6189 79.5273 95.1896 79.686C94.7603 79.8353 94.3916 80.0453 94.0836 80.316L93.6356 79.574C94.0089 79.2567 94.4569 79.014 94.9796 78.846C95.5023 78.6687 96.0529 78.58 96.6316 78.58ZM96.2816 85.286C96.8416 85.286 97.3223 85.16 97.7236 84.908C98.1249 84.6467 98.4236 84.2733 98.6196 83.788V82.584H96.3096C95.0496 82.584 94.4196 83.0227 94.4196 83.9C94.4196 84.3293 94.5829 84.67 94.9096 84.922C95.2363 85.1647 95.6936 85.286 96.2816 85.286ZM102.26 78.636H103.254V81.898H107.888V78.636H108.882V86H107.888V82.752H103.254V86H102.26V78.636Z" fill="#1F2041" fill-opacity="0.75"/>
<circle cx="5" cy="57" r="5" fill="url(#paint0_linear)"/>
<circle cx="5" cy="81" r="5" fill="url(#paint1_linear)"/>
<circle cx="5" cy="33" r="5" fill="url(#paint2_linear)"/>
<circle cx="5" cy="9" r="5" fill="url(#paint3_linear)"/>
<defs>
<linearGradient id="paint0_linear" x1="5" y1="52" x2="5" y2="62" gradientUnits="userSpaceOnUse">
<stop stop-color="#BC9CFF"/>
<stop offset="1" stop-color="#8BA4F9"/>
</linearGradient>
<linearGradient id="paint1_linear" x1="5" y1="76" x2="5" y2="86" gradientUnits="userSpaceOnUse">
<stop stop-color="#919191"/>
<stop offset="1" stop-color="#3D4975"/>
</linearGradient>
<linearGradient id="paint2_linear" x1="5" y1="28" x2="5" y2="38" gradientUnits="userSpaceOnUse">
<stop stop-color="#6FCF97"/>
<stop offset="1" stop-color="#66D2EA"/>
</linearGradient>
<linearGradient id="paint3_linear" x1="5" y1="4" x2="5" y2="14" gradientUnits="userSpaceOnUse">
<stop stop-color="#FFE39C"/>
<stop offset="1" stop-color="#FFBA9C"/>
</linearGradient>
</defs>
</svg>
